<?xml version="1.0" encoding="utf-8"?>
<!-- Generator: Adobe Illustrator 21.0.2, SVG Export Plug-In . SVG Version: 6.00 Build 0)  -->
<svg version="1.1" id="Warstwa_1" xmlns="http://www.w3.org/2000/svg" xmlns:xlink="http://www.w3.org/1999/xlink" x="0px" y="0px"
	 viewBox="0 0 32 32" style="enable-background:new 0 0 32 32;" xml:space="preserve">
<path d="M30.5,31.7h-29c-0.5,0-0.8-0.3-0.9-0.7c-0.1-0.2-0.1-0.5-0.1-0.6l0-0.2l0.8-3c0.5-1.6,1.6-2.9,3.2-3.4l5.5-1.8
	c0.9-0.4,1.4-1.9,1.6-2.8c-0.6-0.6-1.9-2-1.9-3.5c0-0.1,0-0.2,0-0.3c-0.2-0.1-0.3-0.2-0.3-0.3c-0.3-0.3-0.9-2.2-0.9-3.2v-0.3
	l0.1-0.1c0.1-0.2,0.3-0.5,0.5-0.8l0-0.5c0.1-0.5,0.1-1.5,0.1-2.6c0-2.9,2.7-7,6.8-7c4.1,0,5.1,2.4,5.3,3.4c0.9,0.7,1.4,1.8,1.4,3.6
	v3.1c0.3,0.3,0.5,0.7,0.6,1l0,0.2c0,1-0.4,2.2-0.6,2.7c0,0.1-0.1,0.2-0.1,0.2c0,0.2-0.2,0.4-0.3,0.5C22,15.3,22,15.4,22,15.6
	c0,1.3-0.5,2.5-1.4,3.4c0.2,0.9,0.8,2.6,1.8,3l5.3,1.8c1.6,0.6,2.8,1.8,3.2,3.4l0.8,3.2c0,0.2,0,0.6-0.3,0.9
	C31.2,31.4,31,31.7,30.5,31.7z M30.3,30.5C30.3,30.5,30.3,30.5,30.3,30.5L30.3,30.5L30.3,30.5z M1.8,30.3h28.5l-0.7-2.8
	c-0.3-1.2-1.2-2.1-2.4-2.6l-5.3-1.8c-1.8-0.8-2.5-3.6-2.6-4.3l0-0.3l0.3-0.2c0.7-0.7,1.2-1.7,1.2-2.7c0-0.7,0.4-1.1,0.5-1.3
	c0,0,0,0,0,0c0-0.1,0.1-0.2,0.1-0.3c0.2-0.5,0.6-1.5,0.6-2.2c-0.1-0.2-0.2-0.4-0.3-0.5l-0.3-0.2V7.4c0-1.9-0.6-2.4-1-2.6L20,4.6
	l0-0.3c0-0.4-0.4-2.5-4.1-2.5c-3.4,0-5.5,3.4-5.5,5.8c0,1.1,0,2.1-0.1,2.8v1.1l-0.4,0.1c0,0-0.1,0.1-0.2,0.2c0,0.8,0.4,2,0.6,2.3
	c0,0,0.1,0.1,0.1,0.1c0,0,0,0,0,0c0.2,0.1,0.6,0.5,0.6,1.4c0,1,1.1,2.3,1.8,2.8l0.3,0.2l0,0.4c-0.1,0.9-0.8,3.5-2.5,4.2l-5.6,1.8
	c-1.2,0.4-2,1.3-2.4,2.6L1.8,30.3L1.8,30.3z"/>
</svg>
