<?xml version="1.0" encoding="utf-8"?>
<!-- Generator: Adobe Illustrator 21.0.2, SVG Export Plug-In . SVG Version: 6.00 Build 0)  -->
<svg version="1.1" id="Warstwa_1" xmlns="http://www.w3.org/2000/svg" xmlns:xlink="http://www.w3.org/1999/xlink" x="0px" y="0px"
	 viewBox="0 0 32 32" style="enable-background:new 0 0 32 32;" xml:space="preserve">
<style type="text/css">
	.st0{fill:none;stroke:#ddd;stroke-width:1.3;stroke-linecap:round;stroke-linejoin:round;stroke-miterlimit:10;}
	.st1{fill:none;stroke:#ddd;stroke-width:1.3;stroke-miterlimit:10;}
</style>
<g>
	<path class="st0" d="M27.1,4.1c2.2,0,3.9,1.7,3.9,3.8l0,0v19.2c0,2.1-1.8,3.8-3.9,3.8H4.9C2.8,31,1,29.3,1,27.2V7.9l0,0
		c0-2.1,1.8-3.8,3.9-3.8"/>
	<line class="st0" x1="10.3" y1="4.1" x2="21.7" y2="4.1"/>
	<line class="st0" x1="7.2" y1="1" x2="7.2" y2="6.2"/>
	<line class="st0" x1="24.8" y1="1" x2="24.8" y2="6.2"/>
	<line class="st0" x1="1" y1="10.3" x2="31" y2="10.3"/>
</g>
<g>
	<g>
		<path class="st0" d="M7.9,17.3c0-1.7,1.4-3,3.2-3l0,0c1.8,0,3.2,1.3,3.2,3l0,0c0,1.7-1.4,3-3.2,3H9.2h1.9c1.8,0,3.2,1.3,3.2,3l0,0
			c0,1.7-1.4,3-3.2,3l0,0c-1.8,0-3.2-1.3-3.2-3"/>
	</g>
	<path class="st1" d="M20.9,14.3c-1.8,0-3.2,1.3-3.2,3s0,4.3,0,6s1.4,3,3.2,3s3.2-1.3,3.2-3s0-4.3,0-6S22.7,14.3,20.9,14.3z"/>
</g>
</svg>
