<?xml version="1.0" encoding="utf-8"?>
<!-- Generator: Adobe Illustrator 21.0.2, SVG Export Plug-In . SVG Version: 6.00 Build 0)  -->
<svg version="1.1" xmlns="http://www.w3.org/2000/svg" xmlns:xlink="http://www.w3.org/1999/xlink" x="0px" y="0px"
	 viewBox="0 0 32 32" style="enable-background:new 0 0 32 32;" xml:space="preserve">
<style type="text/css">
	.st0{fill:none;stroke:#ddd;stroke-width:1.5;stroke-linecap:round;stroke-linejoin:round;stroke-miterlimit:10;}
</style>
<g>
	<path class="st0" d="M24.3,31H7.7c-1.1,0-2.1-0.9-2.1-2.1V15.5c0-1.1,0.9-2.1,2.1-2.1h16.6c1.1,0,2.1,0.9,2.1,2.1v13.4
		C26.3,30.1,25.4,31,24.3,31z"/>
	<path class="st0" d="M7.7,13.4V9.3C7.7,4.7,11.4,1,16,1l0,0c4.6,0,8.3,3.7,8.3,8.3v4.1h-3.1V9.3c0-2.9-2.3-5.2-5.2-5.2l0,0
		c-2.9,0-5.2,2.3-5.2,5.2v4.1H7.7z"/>
	<path class="st0" d="M19.1,20.7c0-1.7-1.4-3.1-3.1-3.1c-1.7,0-3.1,1.4-3.1,3.1c0,1.3,0.8,2.4,2,2.9l-0.9,3.3h4.1l-0.9-3.3
		C18.3,23.1,19.1,22,19.1,20.7z"/>
</g>
</svg>
