<?xml version="1.0" encoding="utf-8"?>
<!-- Generator: Adobe Illustrator 21.0.2, SVG Export Plug-In . SVG Version: 6.00 Build 0)  -->
<svg version="1.1" id="Warstwa_1" xmlns="http://www.w3.org/2000/svg" xmlns:xlink="http://www.w3.org/1999/xlink" x="0px" y="0px"
	 viewBox="0 0 22 22" style="enable-background:new 0 0 22 22;" xml:space="preserve">
<style type="text/css">
	.st0{fill:none;stroke:#666666;stroke-linecap:round;stroke-linejoin:round;stroke-miterlimit:10;}
</style>
<g>
	<path class="st0" d="M3.1,4.9V4.2C3.1,3,4,2,5.2,2h2.2l0.9-0.9c0.4-0.4,0.9-0.7,1.5-0.7h2.6c0.6,0,1.1,0.2,1.5,0.7L14.7,2h2.2
		C18.1,2,19,3,19,4.2v0.8C19,4.9,3.1,4.9,3.1,4.9z"/>
	<g>
		<path class="st0" d="M3.9,4.9v13.8c0,1.5,1.2,2.7,2.7,2.7h8.8c1.5,0,2.7-1.2,2.7-2.7V4.9H3.9z"/>
		<line class="st0" x1="9.7" y1="18.6" x2="9.7" y2="7.8"/>
		<line class="st0" x1="12.5" y1="18.6" x2="12.5" y2="7.8"/>
		<line class="st0" x1="6.8" y1="18.6" x2="6.8" y2="7.8"/>
		<line class="st0" x1="15.5" y1="18.6" x2="15.5" y2="7.8"/>
	</g>
</g>
</svg>
